<svg viewBox="0 0 32 32" fill="none" xmlns="http://www.w3.org/2000/svg">
  <rect x="2" y="6" width="28" height="20" rx="3" fill="#f49541"/>
  <path d="M6 13.5V18.5H7.2C8.6 18.5 9.5 17.5 9.5 16C9.5 14.5 8.6 13.5 7.2 13.5H6ZM11.4 13.5V18.5M15.5 14C15.1 13.7 14.6 13.5 14.1 13.5C13.4 13.5 12.9 13.9 12.9 14.5C12.9 15.8 15.7 15.4 15.7 16.9C15.7 17.5 15.1 18.5 14.1 18.5C13.6 18.5 13.1 18.3 12.7 18" stroke="#ffe096" stroke-width="1.4" stroke-linecap="round" stroke-linejoin="round"/>
  <circle cx="22" cy="16" r="4" fill="#ffe096"/>
</svg>
